<svg xmlns="http://www.w3.org/2000/svg" viewBox="0 0 50 50" width="50px" height="50px"><path d="M 5.71875 12.96875 C 5.71875 12.96875 6.050781 13.894531 5.84375 14.625 C 5.632813 15.355469 2.09375 31.320313 0.84375 36.84375 C 0.632813 37.988281 0 38.5 0 38.5 L 10 38.5 C 16.359375 38.5 22.09375 30.265625 22.09375 21.40625 C 22.09375 12.546875 13.96875 12.96875 14.90625 12.96875 Z M 23.15625 13.5 C 23.15625 13.5 23.449219 13.8125 23.34375 14.4375 C 23.34375 14.4375 23.195313 15.035156 22.9375 16.03125 C 23.648438 17.4375 24.09375 19.183594 24.09375 21.40625 C 24.09375 28.058594 21.269531 34.15625 17.21875 37.59375 C 17.070313 38.164063 17 38.5 17 38.5 L 21.90625 38.5 L 23.15625 33.40625 L 29.71875 33.40625 L 30.96875 38.5 L 37.53125 38.5 C 37.53125 38.5 30.136719 14.957031 30.03125 14.4375 C 29.925781 13.917969 30.125 13.5 30.125 13.5 Z M 32.375 13.5 L 32.03125 14.15625 C 32.617188 16.136719 36.695313 29.179688 39.4375 37.90625 L 39.65625 38.625 L 43.5625 38.625 C 43.5625 38.625 42.738281 37.375 42.84375 36.4375 C 42.949219 35.707031 43.375 34.03125 43.375 34.03125 C 43.375 34.03125 49.300781 14.84375 49.40625 14.53125 C 49.511719 14.21875 50.03125 13.59375 50.03125 13.59375 L 44.5 13.59375 C 44.5 13.59375 45.242188 14.113281 45.03125 14.53125 C 44.820313 14.949219 40.4375 30.28125 40.4375 30.28125 L 36.46875 13.5 Z M 11.375 16.625 L 13.25 16.625 C 13.875 16.625 16.5625 16.839844 16.5625 22.15625 C 16.566406 27.472656 12.824219 34.75 9.90625 34.75 L 6.96875 34.75 Z M 26.46875 21.71875 L 28.875 29.75 L 23.78125 29.75 Z"/></svg>
